<!-- <?xml version="1.0" encoding="utf-8"?> -->
<!-- Generator: Adobe Illustrator 25.1.0, SVG Export Plug-In . SVG Version: 6.00 Build 0)  -->
<svg version="1.1" id="Layer_1" xmlns="http://www.w3.org/2000/svg" xmlns:xlink="http://www.w3.org/1999/xlink" x="0px" y="0px"
	 viewBox="0 0 216 216" style="enable-background:new 0 0 216 216; fill:white;" xml:space="preserve">
<g>
	<path d="M28.61,144.06c17.51,0,34.91,0,52.4,0c0,2.81,0,5.48,0,8.25c-20.28,0-40.5,0-60.85,0c0-28.67,0-57.31,0-86.09
		c20.21,0,40.48,0,60.86,0c0,2.65,0,5.32,0,8.2c-17.39,0-34.84,0-52.42,0C28.61,97.67,28.61,120.72,28.61,144.06z"/>
	<path d="M71.22,115.57c0-9.49,0-19.56,0-29.16c3.34,0,6.44,0,9.69,0c0,15.18,0,30.39,0,45.77c-3.22,0-6.28,0-9.48,0l-21.17-29.76
		c0,9.63,0,19.99,0,29.72c-3.35,0-6.51,0-9.79,0c0-15.23,0-30.39,0-45.69c3.21,0,6.43,0,9.84,0L71.22,115.57z"/>
	<path d="M90.29,116.74c0.02-9.34,6.37-15.7,15.73-15.76c8.87-0.06,15.38,6.71,15.35,15.96c-0.04,9.11-6.56,15.72-15.46,15.66
		C96.61,132.53,90.27,126.1,90.29,116.74z M113.15,116.89c0.01-4.34-3.42-8.18-7.31-8.17c-3.87,0.01-7.26,3.61-7.3,7.76
		c-0.04,4.47,3.36,8.36,7.31,8.38C109.72,124.87,113.14,121.13,113.15,116.89z"/>
	<path d="M129.33,116.79c0.01-9.42,6.5-15.89,15.86-15.81c8.87,0.08,15.24,6.73,15.22,15.9c-0.02,9.13-6.48,15.72-15.41,15.71
		C135.73,132.59,129.32,126.12,129.33,116.79z M144.9,108.72c-3.95,0-7.36,3.69-7.32,7.92c0.04,4.4,3.41,8.19,7.29,8.21
		c3.87,0.02,7.3-3.7,7.32-7.94C152.21,112.57,148.79,108.72,144.9,108.72z"/>
	<path d="M169.34,88.94c2.75,0,5.37,0,8.15,0c0,14.36,0,28.69,0,43.13c-2.66,0-5.33,0-8.15,0
		C169.34,117.78,169.34,103.45,169.34,88.94z"/>
	<path d="M188.85,115.11c3.66,5.65,7.26,11.21,10.98,16.96c-3.22,0-6.18,0-9.42,0c-3.73-5.62-7.57-11.41-11.5-17.33
		c3.36-4.48,6.65-8.87,9.96-13.29c3.27,0,6.51,0,10.09,0C195.53,106.08,192.22,110.56,188.85,115.11z"/>
	<path d="M140.26,92.27c0.07,1.9-1.75,3.76-3.75,3.84c-1.97,0.08-3.85-1.61-3.98-3.58c-0.13-1.95,1.78-3.93,3.82-3.96
		C138.29,88.55,140.19,90.34,140.26,92.27z"/>
	<path d="M156.5,92.43c-0.04,1.96-1.88,3.7-3.88,3.69c-1.99-0.02-3.86-1.82-3.87-3.74c-0.01-1.97,1.99-3.88,4-3.8
		C154.75,88.65,156.54,90.5,156.5,92.43z"/>
</g>
</svg>
